<?xml version="1.0" standalone="no"?>
<!DOCTYPE svg PUBLIC "-//W3C//DTD SVG 20010904//EN"
 "http://www.w3.org/TR/2001/REC-SVG-20010904/DTD/svg10.dtd">
<svg version="1.0" xmlns="http://www.w3.org/2000/svg"
 width="1024.000000pt" height="500.000000pt" viewBox="0 0 1024.000000 500.000000"
 preserveAspectRatio="xMidYMid meet">

<g transform="translate(0.000000,500.000000) scale(0.100000,-0.100000)"
fill="#000000" stroke="none">
<path d="M7605 3308 c-3 -7 -4 -377 -3 -823 3 -802 3 -810 23 -810 20 0 20 7
20 820 0 773 -1 820 -18 823 -9 2 -19 -2 -22 -10z"/>
<path d="M665 3204 c-11 -2 -45 -9 -75 -15 -190 -38 -375 -186 -464 -371 -57
-119 -76 -207 -76 -351 0 -289 138 -526 375 -642 270 -133 604 -81 820 128 41
40 75 77 74 82 0 9 -92 91 -156 139 l-25 19 -56 -55 c-113 -110 -198 -143
-352 -136 -75 4 -108 10 -151 30 -104 48 -186 142 -231 264 -32 88 -32 273 0
366 79 228 276 350 496 309 90 -17 144 -47 225 -128 l74 -73 64 57 c36 32 77
68 91 79 l26 22 -27 35 c-63 83 -210 186 -303 213 -102 29 -254 42 -329 28z"/>
<path d="M5455 3204 c-11 -2 -45 -9 -75 -15 -30 -6 -97 -31 -149 -56 -75 -36
-108 -60 -174 -124 l-81 -80 -50 50 c-93 91 -232 156 -386 181 -36 5 -208 10
-382 10 l-318 0 0 -691 0 -691 358 4 c333 4 362 6 431 27 126 38 221 90 301
168 l46 43 79 -78 c127 -125 270 -186 465 -198 111 -7 250 13 342 50 56 23 58
23 53 5 -6 -19 0 -19 191 -17 l198 3 130 207 c72 115 133 208 136 208 3 0 66
-95 140 -210 l135 -210 228 0 228 0 -44 63 c-25 34 -142 201 -261 370 l-216
308 214 320 214 319 -201 0 -202 0 -108 -175 c-60 -96 -112 -175 -115 -175 -4
0 -57 78 -118 173 l-110 172 -219 3 c-143 1 -221 -1 -225 -8 -4 -7 -21 -5 -50
5 -99 35 -318 56 -405 39z m784 -517 c72 -103 131 -189 131 -192 0 -6 -238
-365 -251 -379 -5 -6 -43 24 -93 73 l-85 82 -56 -55 c-31 -30 -82 -68 -113
-83 -53 -26 -66 -28 -177 -28 -118 0 -121 1 -183 34 -98 53 -159 140 -182 259
-37 188 42 366 199 444 40 20 61 23 161 23 107 0 119 -2 169 -29 30 -15 79
-51 108 -79 l54 -51 87 87 c48 48 90 86 94 85 4 -2 66 -87 137 -191z m-1811
163 c100 -13 164 -43 217 -102 65 -73 88 -141 89 -263 0 -132 -24 -197 -104
-276 -77 -78 -144 -99 -311 -99 l-119 0 0 368 c0 203 3 372 7 375 9 10 136 8
221 -3z"/>
<path d="M8455 3194 c-204 -32 -378 -160 -468 -345 -64 -129 -81 -222 -74
-393 6 -152 22 -219 78 -335 79 -161 227 -269 419 -307 212 -42 493 19 653
141 l47 36 0 299 0 300 -260 0 -260 0 0 -135 0 -135 110 0 111 0 -3 -67 -3
-68 -58 -29 c-76 -38 -185 -47 -272 -21 -48 13 -70 28 -121 79 -54 54 -65 72
-84 135 -18 59 -22 90 -18 169 5 126 37 201 114 272 71 64 131 84 233 78 87
-5 130 -24 211 -90 l54 -44 103 110 c57 61 103 116 103 122 0 20 -125 131
-177 157 -84 43 -188 68 -303 72 -58 2 -118 1 -135 -1z"/>
<path d="M2500 3050 l0 -130 120 0 120 0 0 130 0 130 -120 0 -120 0 0 -130z"/>
<path d="M1840 2789 c-203 -25 -364 -165 -424 -368 -20 -67 -21 -217 -2 -287
102 -384 598 -513 880 -230 100 101 147 218 148 368 1 98 -16 166 -61 253
-100 194 -304 293 -541 264z m171 -221 c59 -17 114 -70 151 -145 28 -57 33
-77 33 -142 0 -96 -24 -165 -77 -226 -60 -68 -107 -89 -198 -89 -118 0 -192
50 -247 169 -23 50 -27 74 -28 140 0 71 4 88 33 148 35 71 87 123 143 143 44
16 141 17 190 2z"/>
<path d="M9608 2790 c-161 -41 -299 -185 -339 -355 -15 -64 -15 -206 0 -270
54 -229 257 -379 491 -362 186 13 330 122 401 305 28 71 38 237 19 321 -32
146 -125 266 -256 328 -70 33 -85 37 -178 39 -55 2 -118 -1 -138 -6z m164
-290 c53 -15 103 -76 119 -144 45 -201 -153 -346 -283 -208 -44 47 -62 107
-55 178 11 104 78 178 167 183 8 1 31 -4 52 -9z"/>
<path d="M3248 2765 c-25 -8 -73 -35 -105 -59 l-58 -45 -3 27 c-8 76 0 72
-127 72 l-115 0 0 -490 0 -490 119 0 119 0 4 303 c4 335 5 341 74 417 90 99
264 93 322 -13 15 -28 18 -74 22 -367 l5 -335 123 -3 122 -3 0 324 c0 191 -4
348 -11 383 -22 122 -96 221 -197 267 -61 27 -224 34 -294 12z"/>
<path d="M2500 2270 l0 -490 120 0 120 0 0 490 0 490 -120 0 -120 0 0 -490z"/>
</g>
</svg>
